<?xml version="1.0" encoding="UTF-8" standalone="no"?>
<svg
   xmlns:dc="http://purl.org/dc/elements/1.1/"
   xmlns:cc="http://creativecommons.org/ns#"
   xmlns:rdf="http://www.w3.org/1999/02/22-rdf-syntax-ns#"
   xmlns:svg="http://www.w3.org/2000/svg"
   xmlns="http://www.w3.org/2000/svg"
   xmlns:sodipodi="http://sodipodi.sourceforge.net/DTD/sodipodi-0.dtd"
   xmlns:inkscape="http://www.inkscape.org/namespaces/inkscape"
   width="48pt"
   height="48pt"
   viewBox="0 0 48 48"
   version="1.1"
   id="svg2"
   inkscape:version="0.48.2 r9819"
   sodipodi:docname="pw2.svg">
  <metadata
     id="metadata18">
    <rdf:RDF>
      <cc:Work
         rdf:about="">
        <dc:format>image/svg+xml</dc:format>
        <dc:type
           rdf:resource="http://purl.org/dc/dcmitype/StillImage" />
        <dc:title></dc:title>
      </cc:Work>
    </rdf:RDF>
  </metadata>
  <defs
     id="defs16" />
  <sodipodi:namedview
     pagecolor="#ffffff"
     bordercolor="#666666"
     borderopacity="1"
     objecttolerance="10"
     gridtolerance="10"
     guidetolerance="10"
     inkscape:pageopacity="0"
     inkscape:pageshadow="2"
     inkscape:window-width="640"
     inkscape:window-height="480"
     id="namedview14"
     showgrid="false"
     inkscape:zoom="3.9333333"
     inkscape:cx="30"
     inkscape:cy="30"
     inkscape:window-x="0"
     inkscape:window-y="0"
     inkscape:window-maximized="0"
     inkscape:current-layer="svg2" />
  <path
     fill="#3b5999"
     d=" M 0.00 0.00 L 48.00 0.00 L 48.00 48.00 L 0.00 48.00 L 0.00 0.00 Z"
     id="path4" />
  <path
     fill="#060204"
     d=" M 5.45 6.84 C 17.81 6.65 30.19 6.65 42.56 6.83 C 43.37 7.70 44.19 8.55 45.03 9.39 C 45.19 17.25 45.18 25.12 45.00 32.98 C 44.09 33.78 43.24 34.66 42.43 35.56 C 34.35 35.55 26.27 35.51 18.19 35.58 C 18.17 36.33 18.12 37.84 18.09 38.60 C 17.26 39.45 16.44 40.31 15.63 41.18 C 12.24 41.34 8.85 41.32 5.46 41.16 C 4.64 40.34 3.81 39.53 2.97 38.75 C 2.85 28.96 2.81 19.16 2.94 9.37 C 3.79 8.54 4.63 7.70 5.45 6.84 Z"
     id="path6" />
  <path
     fill="#fce914"
     d=" M 6.72 10.56 C 18.24 10.53 29.77 10.53 41.29 10.57 C 41.27 13.46 41.27 16.36 41.28 19.26 C 40.93 19.47 40.24 19.88 39.89 20.09 C 37.80 19.91 35.71 19.73 33.62 19.55 C 33.63 19.22 33.64 18.56 33.64 18.24 C 27.22 18.22 20.79 18.23 14.37 18.24 C 14.37 18.57 14.38 19.25 14.38 19.59 C 12.26 19.73 10.15 19.87 8.03 20.01 C 7.70 19.78 7.05 19.32 6.72 19.10 C 6.73 16.25 6.73 13.41 6.72 10.56 Z"
     id="path8" />
  <path
     fill="#060204"
     d=" M 14.37 18.24 C 20.79 18.23 27.22 18.22 33.64 18.24 C 33.64 18.56 33.63 19.22 33.62 19.55 C 33.60 21.03 33.58 22.51 33.55 23.99 C 27.18 23.98 20.80 24.00 14.42 24.00 C 14.41 22.53 14.39 21.06 14.38 19.59 C 14.38 19.25 14.37 18.57 14.37 18.24 Z"
     id="path10" />
  <path
     fill="#fbc112"
     d=" M 6.72 19.10 C 7.05 19.32 7.70 19.78 8.03 20.01 C 10.15 19.87 12.26 19.73 14.38 19.59 C 14.39 21.06 14.41 22.53 14.42 24.00 C 20.80 24.00 27.18 23.98 33.55 23.99 C 33.58 22.51 33.60 21.03 33.62 19.55 C 35.71 19.73 37.80 19.91 39.89 20.09 C 40.24 19.88 40.93 19.47 41.28 19.26 C 41.30 23.40 41.28 27.55 41.20 31.69 C 32.27 31.61 23.34 31.65 14.41 31.67 C 14.39 33.59 14.37 35.51 14.36 37.43 C 11.83 37.42 9.30 37.42 6.78 37.42 C 6.71 31.32 6.75 25.21 6.72 19.10 Z"
     id="path12" />
</svg>
